PathFileType	4	(X/Y/Z)	../Python\running\Running15\task.trc
DataRate	CameraRate	NumFrames	NumMarkers	Units	OrigDataRate	OrigDataStartFrame	OrigNumFrames
200.000000	200.000000	5	30	mm	200.000000	161	215
Frame#	Time	C7			RBAK			CLAV			STRN			RASI			LASI			RTH1			RTH2			RTH3			RTB2			RHEE			RD5M			RTOE			LTH3			LTB2			LTB3			LHEE			LTOE			LD5M			RTB3			RTB1			T10			PE01			LPSI			PE03			PE02			LTH2			RPSI			LTH1			LTB1			
		X1	Y1	Z1	X2	Y2	Z2	X3	Y3	Z3	X4	Y4	Z4	X5	Y5	Z5	X6	Y6	Z6	X7	Y7	Z7	X8	Y8	Z8	X9	Y9	Z9	X10	Y10	Z10	X11	Y11	Z11	X12	Y12	Z12	X13	Y13	Z13	X14	Y14	Z14	X15	Y15	Z15	X16	Y16	Z16	X17	Y17	Z17	X18	Y18	Z18	X19	Y19	Z19	X20	Y20	Z20	X21	Y21	Z21	X22	Y22	Z22	X23	Y23	Z23	X24	Y24	Z24	X25	Y25	Z25	X26	Y26	Z26	X27	Y27	Z27	X28	Y28	Z28	X29	Y29	Z29	X30	Y30	Z30	

162	0.805	610.605651855469	1354.28857421875	166.7224121093751	600.3712158203127	1264.081176757813	290.1919555664064	723.9978027343752	1252.514892578125	131.7941894531251	758.517761230469	1056.870239257813	123.2015686035157	673.2680664062502	843.5326538085942	282.9862060546876	699.6324462890627	866.641235351563	62.30282211303714	482.8254394531252	594.4384765625002	279.430633544922	465.4477844238284	520.0752563476565	256.4889526367189	514.1381835937502	556.471130371094	268.5135192871095	290.6472473144532	317.156219482422	230.2520294189454	143.3178863525391	181.6359863281251	135.3285827636719	194.0306243896486	42.44113159179689	199.5485687255861	224.3374938964845	32.97489166259767	150.5966949462891	797.8918457031255	656.2310791015627	22.20779609680176	830.9436645507817	285.8130493164064	13.6809310913086	868.2611694335942	314.4754638671876	28.76051902770998	786.684936523438	107.6376571655274	48.24049377441409	969.2212524414067	83.22645568847659	55.92207336425784	938.722778320313	84.76640319824222	4.233054161071779	298.7682189941407	268.7592773437501	218.2579803466798	350.9959411621095	327.963348388672	229.3631744384767	546.295104980469	1065.433349609375	187.0025939941407	520.2646484375002	967.2515258789067	176.9986877441407	504.939392089844	938.675903320313	126.8001174926758	488.8775939941409	923.6681518554692	135.6088867187501	480.2200622558596	914.1545410156255	184.2916564941407	757.075134277344	590.0283813476565	35.98961639404298	498.8387756347659	936.5553588867192	213.584930419922	749.3953247070315	647.9812011718752	18.16012763977051	835.6015625000005	365.4431457519532	13.82726192474366	
163	0.8100000000000001	627.4468994140627	1357.551513671875	165.8431701660157	619.032165527344	1268.499267578125	289.920135498047	740.2904052734377	1256.260498046875	129.7270050048829	775.7841186523442	1061.186157226563	122.0264053344727	691.198425292969	845.8457031250005	283.3641662597657	717.7773437500002	871.0232543945317	63.43339157104495	496.9365234375002	599.2232055664065	278.8489990234376	478.5999450683596	525.1082763671877	255.9743652343751	527.6879882812502	560.7559814453127	268.4996643066407	301.742156982422	323.7229309082032	229.3716125488282	156.7962799072266	189.7044219970704	134.3385162353516	200.3030090332032	47.41927719116212	198.5674896240236	229.823699951172	36.11697387695314	149.8532867431641	815.6542358398442	660.5288085937502	23.25233268737794	856.8010864257817	285.7585449218751	15.46505165100098	892.8305664062505	316.106414794922	30.11012077331544	819.9354858398442	108.1065673828126	52.23336029052737	1002.637329101563	85.20919036865237	61.49473953247073	972.378784179688	85.32447052001956	9.505068778991703	309.928680419922	275.0425720214845	218.2954254150392	362.1768798828126	334.3986816406251	229.2866973876954	563.7266845703127	1068.865234375	189.1922454833985	538.8186645507815	970.5387573242192	178.6282958984376	523.1077880859377	942.3855590820317	128.1755065917969	507.3089904785159	927.595581054688	136.6555786132813	498.3982543945315	917.569458007813	185.2215881347657	774.4137573242192	594.0472412109377	34.87302398681642	517.420104980469	939.9424438476567	214.9770507812501	767.253845214844	652.4281005859377	18.13043594360352	858.0178222656255	365.4380493164064	14.642240524292	
164	0.8150000000000001	644.3052368164065	1360.600952148438	164.9409637451172	637.596862792969	1272.640014648438	289.5733032226564	756.591735839844	1259.779663085938	127.7145156860352	793.0810546875005	1065.374389648438	120.9353561401368	709.111511230469	848.0502319335942	283.7306518554689	735.9021606445315	875.1516113281255	64.55867004394534	511.370056152344	603.734558105469	278.3588867187501	492.2363281250002	529.8374633789065	255.5664672851564	541.6213989257815	564.8196411132815	268.6474914550782	313.4688415527345	329.9859619140626	228.4264984130861	170.0359344482422	197.6172332763673	133.3370819091797	207.4809722900392	53.01364517211917	197.5043487548829	236.3809814453126	39.96848678588869	149.0041961669922	833.3931274414067	664.5236816406252	24.16315650939943	881.9746704101567	285.5875854492189	17.34886741638184	916.7150268554692	317.5717773437501	31.34241294860841	852.5896606445317	108.7918243408204	56.21666336059573	1035.522583007813	87.64548492431643	67.25942230224612	1005.517639160157	86.17530822753909	14.91814231872559	321.586151123047	281.0442504882814	218.1204833984376	374.0111083984376	340.3626708984376	229.0910797119142	581.1416015625002	1072.137084960938	191.1694030761719	557.3889770507815	973.737670898438	180.1792602539063	541.2905883789065	945.9692382812505	129.5224914550782	525.7539062500002	931.3916015625005	137.6955566406251	516.6027832031252	920.916870117188	186.1585235595704	791.7435913085942	597.824401855469	33.78634643554689	536.051940917969	943.2754516601567	216.3365631103517	785.0830688476567	656.5850219726565	18.02688598632813	879.7560424804692	365.1622314453126	15.54014873504639	
165	0.8200000000000001	661.1765747070315	1363.420043945313	164.0201721191407	656.0620117187502	1276.47900390625	289.1697692871095	772.9057617187505	1263.052124023438	125.760971069336	810.3975219726567	1069.412963867188	119.9327392578126	727.004333496094	850.1453247070317	284.0818786621095	753.997741699219	879.002807617188	65.66033935546878	526.1419067382815	607.922790527344	277.9621887207032	506.3724060058596	534.2076416015627	255.2598571777345	555.9627685546877	568.615417480469	268.9294433593751	325.8174438476564	335.9011535644532	227.4241943359376	182.9558410644532	205.3780212402345	132.2554626464844	215.5258941650392	59.17129135131839	196.3592987060548	243.9688720703126	44.50525283813478	148.0560302734376	851.1005859375005	668.1292114257815	24.91721343994142	906.434448242188	285.3103332519532	19.31862831115723	939.8967285156255	318.8699035644532	32.4573211669922	884.5608520507817	109.6824035644532	60.13269805908206	1067.789184570313	90.53775024414065	73.1224060058594	1038.044311523438	87.32157135009768	20.39402580261231	333.7180786132814	286.7293701171876	217.7012481689454	386.4897460937502	345.7996826171876	228.7473449707032	598.5322875976565	1075.22802734375	192.9218902587892	575.9534912109377	976.8312988281255	181.6384277343751	559.4720458984377	949.4006958007817	130.8297119140626	544.1953735351565	935.0254516601567	138.7216339111329	534.8236083984377	924.1712036132817	187.097885131836	809.038452148438	601.3048095703127	32.80140686035158	554.7163085937502	946.5309448242192	217.6515655517579	802.8598632812505	660.3878173828127	17.88119316101075	900.8175659179692	364.6358947753907	16.52707862854005	
166	0.8250000000000001	678.0572509765627	1365.996459960938	163.0850982666016	674.4245605468752	1279.998291015625	288.7261047363282	789.2360839843755	1266.062866210938	123.8705215454102	827.7224121093755	1073.280883789063	119.0219192504883	744.8768310546877	852.132934570313	284.4151306152345	772.057006835938	882.5576171875005	66.72072601318362	541.2697753906252	611.7445068359377	277.6603393554689	521.022644042969	538.1716308593752	255.0484466552736	570.7374267578127	572.102966308594	269.3145446777345	338.7755126953126	341.4352111816407	226.3741912841798	195.5504302978517	212.9917907714845	131.0142974853516	224.3729553222657	65.81339263916018	195.128875732422	252.5128021240236	49.66970443725589	147.0165710449219	868.7647094726567	671.2641601562502	25.50498390197755	930.1605834960942	284.938934326172	21.35891914367676	962.3682250976567	320.0000610351564	33.46188354492189	915.7543334960942	110.762077331543	63.94135284423831	1099.335571289063	93.84917449951175	78.962760925293	1069.84228515625	88.73878479003909	25.84247207641603	346.3092346191407	292.0729370117189	217.0200805664064	399.5998840332034	350.6755371093751	228.2370910644532	615.8922119140627	1078.12060546875	194.4419860839845	594.4904785156252	979.802368164063	182.9928894042969	577.6375122070315	952.6535034179692	132.0852508544922	562.6172485351565	938.4662475585942	139.7263336181641	553.050720214844	927.3064575195317	188.0343933105469	826.2678222656255	604.4251708984377	31.96223068237306	573.3950805664065	949.684204101563	218.9096221923829	820.559692382813	663.7723388671877	17.71876907348634	921.218139648438	363.8852539062501	17.60704231262208	
